<?xml version="1.0" encoding="UTF-8"?>
<svg xmlns="http://www.w3.org/2000/svg" width="128" height="128" viewBox="0 0 128 128">
  <path fill="#D9D9D9" d="M42,6.5l-0.9-2.3C48.4,1.4,56.1,0,64,0v2.4C56.4,2.4,49,3.8,42,6.5z"></path>
  <path fill="#D9D9D9" d="M128,64h-2.4c0-7.6-1.4-15-4-22l2.3-0.9C126.6,48.4,128,56.1,128,64z"></path>
  <path fill="#D9D9D9" d="M64,128v-2.4c7.6,0,15-1.4,22-4l0.9,2.3C79.6,126.6,71.9,128,64,128z"></path>
  <path fill="#D9D9D9" d="M4.2,86.9C1.4,79.6,0,71.9,0,64h2.4c0,7.6,1.4,15,4,22L4.2,86.9z"></path>
  <path fill="#AEC90B" d="M121.6,42C112.5,18.3,89.4,2.4,64,2.4V0c26.4,0,50.4,16.5,59.8,41.2L121.6,42z"></path>
  <path fill="#E6266B" d="M64,128c-26.3,0-50.4-16.5-59.8-41.1L6.5,86c9.1,23.7,32.2,39.6,57.5,39.6V128z"></path>
  <path fill="#F4992D" d="M86.9,123.8l-0.9-2.3c23.7-9.1,39.6-32.2,39.6-57.5h2.4C128,90.3,111.5,114.4,86.9,123.8z"></path>
  <path fill="#1D1D1B" d="M97,81.3h-0.8c0.1,1.5,1.1,2.3,2.8,2.3c1.8,0,2.9-0.9,2.9-2.3c0-0.6-0.2-1.1-0.7-1.5c-0.4-0.4-1.1-0.6-1.9-0.8  c-1.4-0.5-2.2-0.8-2.2-1.7c0-0.9,0.8-1.5,2-1.5c1.1,0,1.8,0.5,1.8,1.3h0.8c-0.1-1.2-1-1.9-2.7-1.9c-1.6,0-2.7,0.9-2.7,2.2  c0,1.2,0.8,1.7,2.4,2.3c0.8,0.3,1.4,0.4,1.7,0.7c0.4,0.3,0.6,0.7,0.6,1.2c0,0.9-0.8,1.6-2.1,1.6C97.8,82.9,97.1,82.4,97,81.3   M89.6,78.8v-3.1h1.9c1.5,0,2.1,0.4,2.1,1.5c0,1.1-0.8,1.6-2.5,1.6H89.6z M88.9,83.5h0.7v-4h2.4c0.8,0,1.1,0.3,1.2,0.9  c0.2,1.1,0.2,2.1,0.5,3.1h0.8c-0.4-1.2-0.3-2.5-0.6-3.3c-0.2-0.6-0.5-1-1.3-1.1c1.1-0.3,1.6-1,1.6-2c0-1.4-1-2-3-2h-2.6V83.5z   M81.7,83.5h5.1v-0.7h-4.3v-3.3h4v-0.6h-4v-3.1h4.2v-0.7h-4.9V83.5z M74,75.8h1.5c2.4,0,3.5,1.1,3.5,3.5c0,2.4-1.1,3.5-3.5,3.5H74  V75.8z M73.3,75.1v8.4h2.3c2.8,0,4.2-1.4,4.2-4.2s-1.4-4.2-4.2-4.2H73.3z M64.7,83.5h0.7v-7.2l4.5,7.2h0.9v-8.4h-0.7v7.3l-4.6-7.3  h-0.8V83.5z M57.8,80.6l1.8-4.8l1.8,4.8H57.8z M55.9,83.5h0.8l0.9-2.3h4.1l0.9,2.3h0.8l-3.3-8.4h-0.9L55.9,83.5z M50.4,83.5h4.9  v-0.7h-4.2v-7.7h-0.8V83.5z M42,83.5h0.7v-4h4.5v4H48v-8.4h-0.7v3.7h-4.5v-3.7H42V83.5z M40.3,81.5h-0.8c-0.2,0.9-0.9,1.5-2,1.5  c-1.7,0-2.8-1.4-2.8-3.6c0-2.4,1.1-3.7,2.7-3.7c1.1,0,1.9,0.6,2,1.5h0.8C40.1,75.7,39,75,37.5,75c-2.3,0-3.6,1.6-3.6,4.3  c0,2.8,1.3,4.3,3.5,4.3C39,83.6,40,82.8,40.3,81.5 M27.4,81.3h-0.8c0.1,1.5,1.1,2.3,2.8,2.3c1.8,0,2.9-0.9,2.9-2.3  c0-0.6-0.2-1.1-0.7-1.5c-0.4-0.4-1.1-0.6-1.9-0.8c-1.4-0.5-2.2-0.8-2.2-1.7c0-0.9,0.8-1.5,2-1.5c1.1,0,1.8,0.5,1.8,1.3h0.8  c-0.1-1.2-1-1.9-2.7-1.9c-1.6,0-2.7,0.9-2.7,2.2c0,1.2,0.8,1.7,2.4,2.3c0.8,0.3,1.4,0.4,1.7,0.7c0.4,0.3,0.6,0.7,0.6,1.2  c0,0.9-0.8,1.6-2.1,1.6C28.1,82.9,27.4,82.4,27.4,81.3"></path>
  <path fill="#66656A" d="M91.3,65.6l10.4-9.2v-4.7H85v3.9h9.5l-10,9v4.9h17.7v-3.9H91.3z M62.2,63.6h-5.9v0.3c0,4.2,2.8,5.9,8.9,5.9  c6.4,0,9.8-2.1,9.8-5.6c0-1.6-0.7-2.9-1.9-3.8c-1.5-1.1-3.4-1.5-5.6-2c-3.2-0.7-4.7-0.9-4.7-2.1c0-0.8,0.9-1.3,2.6-1.3  c2.2,0,3.3,0.7,3.3,1.9v0.1h5.6v-0.2c0-3.6-2.8-5.3-8.6-5.3c-6,0-9.1,1.9-9.1,5.4c0,1.4,0.5,2.6,1.4,3.4c1.5,1.4,3.9,1.8,7.1,2.5  c2.5,0.5,3.7,0.7,3.7,1.9c0,0.9-1.1,1.6-3,1.6c-2.4,0-3.6-0.6-3.6-2.1C62.1,64,62.2,63.8,62.2,63.6 M32.1,60.7  c0-3.7,1.8-5.8,4.9-5.8c3.3,0,5.1,2,5.1,5.9c0,3.6-1.7,5.4-5,5.4C33.8,66.2,32.1,64.4,32.1,60.7 M36.7,69.8c7.6,0,11.5-3.1,11.5-9.1  c0-6.1-3.8-9.4-11.1-9.4c-7.3,0-11.3,3.3-11.3,9.2C25.9,66.6,29.6,69.8,36.7,69.8"></path>
  <path fill="#00AFB3" d="M2.4,64H0C0,37.6,16.5,13.6,41.2,4.2L42,6.5C18.3,15.5,2.4,38.6,2.4,64z"></path>
</svg>
